<svg width="604" height="602" viewBox="0 0 604 602" fill="none" xmlns="http://www.w3.org/2000/svg">
<path d="M54.7514 0C54.7514 0 -21.2355 96.5981 5.82674 153.257C32.1573 208.384 130.516 154.709 149.831 212.702C169.6 272.053 89.284 265.191 99.0404 327.013C113.761 420.29 248.415 259.886 304.913 335.307C334.958 375.415 275.73 451.382 315.661 481.519C360.517 515.372 417.648 408.846 469.226 430.977C526.766 455.666 507.534 521.916 541.229 574.945C547.53 584.862 551.55 589.314 561.066 596.023C575.916 606.493 604 600.023 604 600.023V0H54.7514Z" fill="white"/>
</svg>
